<?xml version="1.0" encoding="utf-8"?>
<svg viewBox="0.165 74.914 1032.556 483.502" fill="none" xmlns="http://www.w3.org/2000/svg">
  <path d="M276.704 195.612H363.94V207.956H253.135C253.135 207.956 256.693 202.27 263.963 199.139C272.151 195.612 276.704 195.612 276.704 195.612Z" fill="#E93119"/>
  <path d="M329.22 364.986H239.514V352.642H353.456C353.456 352.642 349.797 358.328 342.322 361.459C333.902 364.986 329.22 364.986 329.22 364.986Z" fill="#038BA0"/>
  <path d="M246.936 217.961L363.94 218.355V230.306H241.733C241.733 230.306 242.169 225.996 243.301 223.444C244.656 220.391 246.936 217.961 246.936 217.961Z" fill="#EA3A1F"/>
  <path d="M362.965 342.052L239.514 341.658V329.708L368.455 329.708C368.455 329.708 367.995 334.018 366.8 336.57C365.37 339.623 362.965 342.052 362.965 342.052Z" fill="#168E9D"/>
  <rect x="239.514" y="240.311" width="52.6479" height="12.3441" fill="#EC7047"/>
  <rect x="318.485" y="307.359" width="52.6479" height="12.3441" fill="#82A592"/>
  <rect x="325.908" y="240.311" width="38.032" height="12.3441" fill="#EC7047"/>
  <rect x="239.514" y="307.359" width="43.6947" height="12.3441" fill="#82A592"/>
  <path d="M242.039 262.66H339.835L354.757 275.004H246.822L242.039 262.66Z" fill="#EC9E6C"/>
  <path d="M253.364 285.009H360.856C360.856 285.009 364.584 288.378 366.441 290.846C368.241 293.239 370.215 297.353 370.215 297.353L267.845 297.066C267.845 297.066 263.194 295.492 259.027 292.237C255.816 289.728 253.364 285.009 253.364 285.009Z" fill="#D9AE82"/>
  <path d="M435.604 195.612H512.089L514.652 207.956H433.117L435.604 195.612Z" fill="#E93119"/>
  <path d="M431.296 217.961H516.503L519.358 230.306H428.526L431.296 217.961Z" fill="#EA3A1F"/>
  <path d="M418.803 285.009H529.277L532.98 297.353H415.211L418.803 285.009Z" fill="#D9AE82"/>
  <path d="M413.59 307.359H535.549L539.637 319.703H409.624L413.59 307.359Z" fill="#82A592"/>
  <path d="M426.689 240.311H471.264L468.892 252.655H423.934L426.689 240.311Z" fill="#EC7047"/>
  <path d="M422.327 262.66H466.902L464.53 275.004H419.572L422.327 262.66Z" fill="#EC9E6C"/>
  <path d="M478.979 252.785H523.95L521.557 240.441H476.199L478.979 252.785Z" fill="#EC7047"/>
  <path d="M483.57 275.199H528.541L526.148 262.855H480.791L483.57 275.199Z" fill="#EC9E6C"/>
  <path d="M385.52 329.708H458.829L455.691 342.052H385.52V329.708Z" fill="#168E9D"/>
  <path d="M385.52 352.058H454.62L451.663 364.402H385.52V352.058Z" fill="#038BA0"/>
  <path d="M563.053 329.708H488.673L491.856 342.052H563.053V329.708Z" fill="#168E9D"/>
  <path d="M563.053 352.643H492.958L495.958 364.987H563.053V352.643Z" fill="#038BA0"/>
  <rect x="576.062" y="195.612" width="150.138" height="12.3441" fill="#E93119"/>
  <rect x="576.062" y="217.961" width="150.138" height="12.3441" fill="#EA3A1F"/>
  <rect x="576.062" y="329.708" width="150.138" height="12.3441" fill="#168E9D"/>
  <rect x="576.062" y="352.643" width="150.138" height="12.3441" fill="#038BA0"/>
  <rect x="600.549" y="240.44" width="50.5818" height="12.3441" fill="#EC7047"/>
  <rect x="683.96" y="240.44" width="42.2407" height="12.3441" fill="#EC7047"/>
  <rect x="600.549" y="262.66" width="83.4102" height="12.3441" fill="#EC9E6C"/>
  <rect x="600.549" y="285.009" width="83.4102" height="12.3441" fill="#D9AE82"/>
  <rect x="600.549" y="307.359" width="48.5156" height="12.3441" fill="#82A592"/>
  <rect x="683.96" y="307.359" width="42.2407" height="12.3441" fill="#82A592"/>
  <rect x="740.816" y="195.612" width="170.187" height="12.3441" fill="#E93119"/>
  <rect x="740.816" y="217.961" width="170.187" height="12.3441" fill="#EA3A1F"/>
  <rect x="740.816" y="240.311" width="43.9242" height="12.3441" fill="#EC7047"/>
  <rect x="801.116" y="240.311" width="48.3626" height="12.3441" fill="#EC7047"/>
  <rect x="868.074" y="240.311" width="42.9294" height="12.3441" fill="#EC7047"/>
  <rect x="801.116" y="262.855" width="48.3626" height="12.3441" fill="#EC9E6C"/>
  <rect x="801.116" y="285.009" width="48.3626" height="12.3441" fill="#D9AE82"/>
  <rect x="801.116" y="307.359" width="48.3626" height="12.3441" fill="#82A592"/>
  <rect x="777.7" y="329.708" width="96.3425" height="12.3441" fill="#168E9D"/>
  <rect x="777.7" y="352.058" width="96.3425" height="12.3441" fill="#038BA0"/>
  <path d="M310.555 367.982L525.471 513.448L611.827 430.71" stroke="#EA3A1F" stroke-width="10"/>
  <path d="M283.351 367.95L526.886 533.524L632.985 430.158" stroke="#EC9E6C" stroke-width="10"/>
  <path d="M258.137 369.314L528.034 552.007L655.101 430.093" stroke="#168E9D" stroke-width="10"/>
  <path d="M231.966 353.596L14 203.386L1018.59 81.6661L906.187 190.78" stroke="#168E9D" stroke-width="10"/>
  <path d="M233.851 334.364L54.7103 212.611L977.885 100.637L886.478 190.229" stroke="#EC9E6C" stroke-width="10"/>
  <path d="M862.663 192.078L937.978 119.641L355.102 189.45" stroke="#EA3A1F" stroke-width="10"/>
  <path d="M250.341 203.126L96.0333 222.064L234.196 316.724" stroke="#EA3A1F" stroke-width="10"/>
  <rect x="492.132" y="372.729" width="326.034" height="46.82" rx="23.41" fill="#F4D2B8" stroke="#EA3A1F" stroke-width="6"/>
  <path d="M527.243 383.03L551.071 383.03L537.309 411.194" stroke="#E76133" stroke-width="3"/>
  <path d="M527.342 387.38L542.726 387.38L531.002 410.875" stroke="#E76133" stroke-width="3"/>
  <path d="M559.403 399.315C559.403 399.315 566.357 381.575 569.505 381.575C572.067 381.575 579.753 398.485 579.753 398.485H569.505" stroke="#E76133" stroke-width="2"/>
  <path d="M563.393 399.229C563.393 399.229 569.102 387.011 569.651 387.011C570.2 387.011 573.97 394.966 573.97 394.966H567.821" stroke="#E76133" stroke-width="2"/>
  <line y1="-1.5" x2="15.5187" y2="-1.5" transform="matrix(0.9999719858169556, 0.007445289753377438, -0.012181400321424007, 0.9999260306358337, 562.1119995117188, 404.8659973144531)" stroke="#E76133" stroke-width="3"/>
  <path d="M621.801 409.354L609.32 409.354C609.32 409.354 606.973 409.698 604.855 407.981C602.737 406.265 602.878 403.689 602.878 403.689L602.878 387.666C602.878 387.666 603.725 385.097 605.294 384.118C606.764 383.2 609.906 383.03 609.906 383.03L622.239 383.03" stroke="#E76133" stroke-width="4"/>
  <path d="M619.756 393.869L608.594 393.869L608.594 389.758C608.594 389.758 608.712 388.772 609.252 388.385C609.76 388.021 610.936 387.974 610.936 387.974L622.174 387.974" stroke="#E76133" stroke-width="3"/>
  <path d="M619.866 398.433L608.499 398.433L608.499 402.32C608.499 402.32 608.502 403.614 609.069 404.008C610.021 404.668 611.23 404.518 611.23 404.518L622.062 404.518" stroke="#E76133" stroke-width="3"/>
  <path d="M627.516 409.501V383.177H637.581C637.581 383.177 650.727 384.551 650.976 395.939C651.225 407.327 637.581 409.501 637.581 409.501H627.516Z" stroke="#E76133" stroke-width="4"/>
  <path d="M633.481 404.294V388.042H638.16C638.16 388.042 644.271 388.89 644.387 395.92C644.502 402.951 638.16 404.294 638.16 404.294H633.481Z" stroke="#E76133" stroke-width="4"/>
  <line x1="659.005" y1="410.36" x2="659.005" y2="381.289" stroke="#E76133" stroke-width="4"/>
  <line x1="664.641" y1="410.36" x2="664.641" y2="381.289" stroke="#E76133" stroke-width="4"/>
  <path d="M696.543 404.981H687.649C687.649 404.981 679.303 403.264 679.304 396.168C679.305 389.244 687.649 388.099 687.649 388.099H696.543" stroke="#E76133" stroke-width="4"/>
  <path d="M696.506 409.673H684.459C684.459 409.673 673.154 406.985 673.156 395.871C673.157 385.027 684.459 383.235 684.459 383.235H696.506" stroke="#E76133" stroke-width="4"/>
  <path d="M689.217 410.89L689.217 413.794L685.411 415.526" stroke="#E76133" stroke-width="4"/>
  <path d="M700.752 404.953C700.752 404.953 706.022 405.427 707.194 404.953C713.342 402.463 711.146 382.777 720.662 383.121C730.178 383.464 728.495 403.15 734.131 404.953C735.009 405.234 740.573 404.953 740.573 404.953" stroke="#E76133" stroke-width="4"/>
  <path d="M700.752 409.472C700.752 409.472 705.912 409.66 707.194 409.472C717.954 407.899 716.856 388.847 720.662 388.845C724.469 388.844 722.273 408.643 734.131 409.472C735.069 409.538 740.573 409.472 740.573 409.472" stroke="#E76133" stroke-width="4"/>
  <path d="M714.389 378.728C714.389 378.728 716.018 377.14 717.51 376.801C719.803 376.279 721.026 378.962 723.288 378.365C724.553 378.031 725.958 376.692 725.958 376.692" stroke="#E76133" stroke-width="4"/>
  <path d="M771.146 396.053C771.146 400.125 767.319 403.839 762.057 403.839C756.794 403.839 752.967 400.125 752.967 396.053C752.967 391.981 756.794 388.268 762.057 388.268C767.319 388.268 771.146 391.981 771.146 396.053Z" stroke="#E76133" stroke-width="4"/>
  <path d="M777.295 396.025C777.295 402.529 770.906 408.36 762.276 408.36C753.646 408.36 747.257 402.529 747.257 396.025C747.257 389.52 753.646 383.689 762.276 383.689C770.906 383.689 777.295 389.52 777.295 396.025Z" stroke="#E76133" stroke-width="4"/>
</svg>