<svg width="295" height="261" viewBox="0 0 295 261" fill="none" xmlns="http://www.w3.org/2000/svg">
<path d="M128.943 81.345L61.527 195.837C52.8914 210.503 63.4653 229 80.4847 229H214.695C231.675 229 242.254 210.58 233.698 195.914L166.903 81.4217C158.433 66.9038 137.471 66.8615 128.943 81.345Z" stroke="#EC9E6C" stroke-width="14"/>
<path d="M135.233 117.635L98.973 180.506C93.2057 190.506 100.423 203 111.967 203H184.153C195.67 203 202.89 190.558 197.176 180.558L161.251 117.687C155.505 107.632 141.018 107.603 135.233 117.635Z" stroke="#168E9D" stroke-width="14"/>
<path d="M118.679 50.5724L29.8309 202.867C16.6074 225.533 32.9569 254 59.1985 254H236.076C262.257 254 278.614 225.652 265.512 202.985L177.483 50.6906C164.423 28.0962 131.83 28.0308 118.679 50.5724Z" stroke="#EA3A1F" stroke-width="14"/>
</svg>
